<svg width="719" height="422" viewBox="0 0 719 422" fill="none" xmlns="http://www.w3.org/2000/svg">
<path d="M320.643 190C312.873 190 304.663 189.62 296.943 189.21H296.833C296.593 189.21 296.383 189.25 296.203 189.31C296.313 188.91 296.693 188.68 297.323 188.32C297.683 188.11 298.103 187.88 298.463 187.55C302.773 183.76 305.053 178.8 305.643 171.95L305.623 66.1498C304.503 59.1898 302.283 54.1099 298.843 50.5399C298.563 50.2499 297.903 49.7499 297.143 49.1599C296.553 48.6999 295.673 48.0299 295.453 47.7899C295.413 47.6199 295.423 47.5398 295.443 47.5198C295.443 47.5198 295.563 47.3699 296.213 47.3699C296.793 47.3699 297.523 47.4898 298.113 47.5898C298.543 47.6598 298.923 47.7199 299.193 47.7299C303.013 47.8399 307.023 47.8898 311.433 47.8898C319.923 47.8898 328.653 47.6899 337.103 47.4899C345.563 47.2899 354.303 47.0898 362.813 47.0898C371.323 47.0898 378.413 47.2898 385.003 47.6998C409.343 49.2098 420.813 65.2398 423.423 79.7398C426.273 95.5498 419.523 115.77 398.023 125.32L385.333 129.46L405.833 152.7C410.163 158.37 416.123 166.17 416.983 174.57C417.063 175.3 417.033 176.04 417.003 176.83C416.963 177.92 416.923 179.05 417.173 180.16C417.083 180.16 416.993 180.16 416.913 180.16C416.483 180.16 416.193 180.11 415.923 179.99C415.403 179.75 414.433 178.97 413.493 178.2C412.393 177.31 411.263 176.39 410.323 175.87C408.063 174.62 405.633 173.76 403.273 172.92C401.373 172.25 399.413 171.55 397.573 170.66L361.943 130.08H324.793L324.773 169.99C325.193 175.89 326.353 182.01 331.923 187.15C332.233 187.44 332.633 187.72 333.053 188.03C333.483 188.34 334.253 188.89 334.443 189.19C334.293 189.27 333.853 189.45 332.663 189.55C329.323 189.83 325.273 189.97 320.623 189.97L320.643 190ZM324.803 112.06H382.013C386.413 112.06 394.063 108.16 397.073 105.53C401.793 101.41 404.533 94.6899 404.403 87.5599C404.283 80.8199 401.593 74.8398 397.043 71.1498C394.383 68.9998 387.783 65.7499 383.893 65.7499H324.803V112.06Z" fill="#827263"/>
<path d="M479.892 123.44C479.822 118.27 479.152 112.74 477.782 106.1C466.262 50.37 420.032 12.92 362.732 12.92C358.772 12.92 354.732 13.1 350.732 13.46C300.422 17.94 256.922 59.43 249.432 110.03C249.182 110.1 248.492 110.22 246.692 110.22C245.812 110.22 244.902 110.2 244.162 110.17C243.642 110.16 243.202 110.14 242.912 110.14L241.822 110.16C241.382 110.17 240.962 110.18 240.552 110.18C239.852 110.18 239.082 110.13 238.252 110.07C237.662 110.03 237.062 109.99 236.492 109.97C242.502 72.08 264.792 38.14 296.212 19.1C316.822 6.60998 340.192 0 363.792 0C394.412 0 424.152 10.87 447.532 30.6C471.832 51.12 487.432 80.08 491.462 112.15C491.822 115.05 491.992 118.02 492.162 120.89C492.282 122.93 492.402 125.04 492.592 127.11L492.362 127.24L479.902 123.41L479.892 123.44Z" fill="#827263"/>
<path d="M364.6 263.36C332.46 263.36 302.09 251.84 279.1 230.92C259.07 212.7 244.82 189.15 239.91 166.23C240.26 166.22 240.71 166.2 241.22 166.18C243.29 166.09 246.41 165.96 248.88 165.96C250.95 165.96 251.78 166.06 252.11 166.13C261.04 193.42 278.07 216.65 300.09 231.56C319.22 244.52 341.43 251.36 364.3 251.36C399.31 251.36 431.91 235.55 453.74 207.98C463.32 195.88 475.34 176.61 478.33 153.37L491.03 149.19C487.83 186.95 464.8 223.5 430.76 244.74C411.24 256.92 388.35 263.36 364.58 263.36H364.6Z" fill="#827263"/>
<path d="M373.573 236.71C363.033 236.71 351.583 234.55 342.153 230.79C340.973 230.32 339.603 229.63 338.143 228.91C334.353 227.02 330.063 224.87 326.183 224.87C324.083 224.87 322.303 225.52 320.883 226.81C320.523 227.14 320.253 227.58 319.993 228C319.833 228.27 319.683 228.5 319.543 228.68V200.53C324.323 205.16 328.943 208.79 333.603 211.62C344.963 218.5 361.203 223.13 374.003 223.13C378.063 223.13 381.783 222.68 385.043 221.81C393.613 219.51 398.743 214.7 399.103 208.61C399.493 202.09 394.283 195.84 385.503 192.31C382.163 190.97 377.553 189.58 372.673 188.12C359.663 184.22 343.483 179.36 338.483 171.71C335.833 167.66 334.853 161.79 335.983 156.77C336.593 154.07 338.073 150.39 341.723 148.16C343.573 147.03 344.933 146.59 346.593 146.59C346.813 146.59 347.033 146.59 347.263 146.61C345.663 155.8 349.733 160.23 356.813 164.34C363.873 168.45 372.153 171.11 380.153 173.68C388.843 176.47 397.053 179.11 403.903 183.45C411.753 188.42 416.293 196.46 416.363 205.51C416.433 214.93 411.603 223.74 403.443 229.07C395.813 234.06 385.483 236.7 373.563 236.7L373.573 236.71Z" fill="#827263"/>
<path d="M465.242 140.64H402.582C402.212 139.54 401.262 138.39 400.342 137.29C399.582 136.37 398.792 135.42 398.632 134.79C398.592 134.62 398.642 134.39 398.702 134.27H464.912L456.432 121.29L501.702 137.85L456.712 154.82L465.242 140.64Z" fill="#827263"/>
<path d="M230.383 140.64V134.64L299.173 134.27C299.383 134.32 299.473 134.42 299.523 134.48C299.823 134.93 299.593 136.08 299.413 136.92C299.303 137.46 299.193 137.97 299.193 138.39C299.193 138.91 299.303 139.38 299.423 139.84C299.493 140.12 299.563 140.39 299.593 140.65H230.383V140.64Z" fill="#827263"/>
<path d="M331.602 141.01V135.02H359.142L363.722 141.01H331.602Z" fill="#827263"/>
<path d="M258.86 130.86L248.68 118.09H258.32L269.23 130.89L258.86 130.86Z" fill="#827263"/>
<path d="M243.621 130.86L233.441 118.09H243.071L253.991 130.89L243.621 130.86Z" fill="#827263"/>
<path d="M228.381 130.86L218.191 118.09H227.831L238.751 130.89L228.381 130.86Z" fill="#827263"/>
<path d="M248.68 156.82L258.86 144.05L269.23 144.01L258.32 156.82H248.68Z" fill="#827263"/>
<path d="M233.441 156.82L243.621 144.05L253.991 144.01L243.071 156.82H233.441Z" fill="#827263"/>
<path d="M218.191 156.82L228.381 144.05L238.751 144.01L227.831 156.82H218.191Z" fill="#827263"/>
<path d="M28.57 421.6L29.69 415.29L23.53 372.45L22.02 370.75H16.9301L14.91 372.77V415.2L16.58 421.6H0L1.67004 415.2V312.89L0 306.34H37.16L44.17 313.21V363.73L36.78 371.12L43.1 414.9L45.19 421.6H28.59H28.57ZM14.9 321.92V355.33L16.92 357.35H28.73L30.75 355.33V321.92L28.73 319.9H16.92L14.9 321.92Z" fill="#827263"/>
<path d="M55.2695 421.6L56.9495 415.05V312.74L55.2795 306.35H97.6895L100.08 321.1L93.3495 319.59H72.2095L70.1895 321.609V355.18L72.2095 357.2H78.3395L84.8995 355.52V372.27L78.3395 370.59H72.2095L70.1895 372.62V406.03L72.2095 408.05H93.3495L100.08 406.54L97.6895 421.6H55.2695Z" fill="#827263"/>
<path d="M115.87 421.6L108.71 414.729V400.2L107.18 393.8H123.93L122.26 400.2V406.18L124.29 408.2H135.94L137.97 406.18V372.77L135.94 370.75H115.88L108.71 363.729V313.22L115.87 306.35H144.5L151.36 313.21V327.9L153.17 334.3H136.43L137.97 327.89V321.92L135.94 319.9H124.29L122.26 321.92V355.33L124.29 357.35H144.5L151.36 364.21V414.74L144.5 421.6H115.87Z" fill="#827263"/>
<path d="M177.038 421.6L178.708 415.2V321.92L176.678 319.9H166.728L159.988 321.41L162.388 306.35H208.118L210.658 321.41L203.768 319.9H194.128L192.098 321.92V415.2L193.768 421.6H177.038Z" fill="#827263"/>
<path d="M217.932 421.6L219.602 415.2V312.9L217.922 306.35H234.532L232.992 312.9V406.18L235.022 408.2H256.002L262.742 406.69L260.342 421.6H217.932Z" fill="#827263"/>
<path d="M270.309 421.6L271.979 415.05V312.74L270.309 306.35H312.729L315.119 321.1L308.379 319.59H287.249L285.219 321.609V355.18L287.249 357.2H293.379L299.929 355.52V372.27L293.379 370.59H287.249L285.219 372.62V406.03L287.249 408.05H308.379L315.119 406.54L312.719 421.6H270.309Z" fill="#827263"/>
<path d="M330.901 421.6L323.741 414.729V400.2L322.211 393.8H338.961L337.301 400.2V406.18L339.321 408.2H350.981L353.001 406.18V372.77L350.981 370.75H330.911L323.741 363.729V313.22L330.901 306.35H359.541L366.401 313.21V327.9L368.201 334.3H351.471L353.001 327.89V321.92L350.981 319.9H339.321L337.301 321.92V355.33L339.321 357.35H359.541L366.401 364.21V414.74L359.541 421.6H330.901Z" fill="#827263"/>
<path d="M386.35 421.6L379.19 414.729V400.2L377.66 393.8H394.41L392.74 400.2V406.18L394.77 408.2H406.42L408.44 406.18V372.77L406.42 370.75H386.35L379.19 363.729V313.22L386.35 306.35H414.98L421.84 313.21V327.9L423.65 334.3H406.91L408.44 327.89V321.92L406.42 319.9H394.77L392.74 321.92V355.33L394.77 357.35H414.98L421.84 364.21V414.74L414.98 421.6H386.35Z" fill="#827263"/>
<path d="M475.489 421.6L468.329 414.729V400.2L466.789 393.8H483.549L481.879 400.2V406.18L483.899 408.2H495.559L497.579 406.18V372.77L495.559 370.75H475.489L468.329 363.729V313.22L475.489 306.35H504.119L510.979 313.21V327.9L512.789 334.3H496.049L497.579 327.89V321.92L495.559 319.9H483.899L481.879 321.92V355.33L483.899 357.35H504.119L510.979 364.21V414.74L504.119 421.6H475.489Z" fill="#827263"/>
<path d="M536.649 421.6L538.319 415.2V321.92L536.299 319.9H526.349L519.609 321.41L521.999 306.35H567.739L570.269 321.41L563.389 319.9H553.739L551.719 321.92V415.2L553.389 421.6H536.649Z" fill="#827263"/>
<path d="M604.65 421.6L605.73 417.3L601.85 394.79L599.56 392.5H586.37L584.08 394.79L580.36 417.29L581.3 421.6H564.75L567.86 412.4L585.06 312.33L583.66 306.34H602.12L600.73 312.33L618.06 412.16L621.34 421.6H604.66H604.65ZM586.9 377.36L588.68 378.94H596.91L598.87 377.38L593.45 345.95H592.32L586.9 377.36Z" fill="#827263"/>
<path d="M632.839 421.6L634.509 415.2V321.92L632.479 319.9H622.529L615.789 321.41L618.189 306.35H663.919L666.459 321.41L659.569 319.9H649.929L647.899 321.92V415.2L649.569 421.6H632.839Z" fill="#827263"/>
<path d="M673.73 421.6L675.401 415.05V312.74L673.73 306.35H716.151L718.541 321.1L711.801 319.59H690.671L688.651 321.609V355.18L690.671 357.2H696.801L703.35 355.52V372.27L696.801 370.59H690.671L688.651 372.62V406.03L690.671 408.05H711.801L718.541 406.54L716.151 421.6H673.73Z" fill="#827263"/>
</svg>
